<svg xmlns="http://www.w3.org/2000/svg" xmlns:xlink="http://www.w3.org/1999/xlink" width="128" height="128" version="1.1" viewBox="0 0 128 128"><defs><linearGradient id="linear0" x1="62.816" x2="158.563" y1="414.077" y2="414.077" gradientTransform="matrix(1,0,0,1,-42.442848,-294.18116)" gradientUnits="userSpaceOnUse"><stop offset="0" style="stop-color:#fbf3aa;stop-opacity:1"/><stop offset=".063" style="stop-color:#fcf5b4;stop-opacity:1"/><stop offset=".156" style="stop-color:#f5e111;stop-opacity:1"/><stop offset=".289" style="stop-color:#b1a208;stop-opacity:1"/><stop offset=".367" style="stop-color:#2c9387;stop-opacity:1"/><stop offset=".653" style="stop-color:#6ed2ca;stop-opacity:1"/><stop offset=".852" style="stop-color:#2dc0af;stop-opacity:.960784"/><stop offset=".958" style="stop-color:#a2e9e1;stop-opacity:.960784"/><stop offset="1" style="stop-color:#249d8f;stop-opacity:.960784"/></linearGradient><linearGradient id="linear1" x1="32" x2="56" y1="239.25" y2="196" gradientTransform="matrix(1,0,0,1,0,-172.000008)" gradientUnits="userSpaceOnUse"><stop offset="0" style="stop-color:#c061cb;stop-opacity:1"/><stop offset="1" style="stop-color:#8f58c8;stop-opacity:1"/></linearGradient><linearGradient id="linear2" x1="64" x2="80" y1="260" y2="220" gradientTransform="matrix(1,0,0,1,0,-172.000008)" gradientUnits="userSpaceOnUse"><stop offset="0" style="stop-color:#2dc0af;stop-opacity:1"/><stop offset="1" style="stop-color:#3584e4;stop-opacity:1"/></linearGradient><filter id="alpha" width="100%" height="100%" x="0%" y="0%" filterUnits="objectBoundingBox"><feColorMatrix in="SourceGraphic" type="matrix" values="0 0 0 0 1 0 0 0 0 1 0 0 0 0 1 0 0 0 1 0"/></filter><mask id="mask0"><g filter="url(#alpha)"><rect width="128" height="128" x="0" y="0" style="fill:#000;fill-opacity:.2;stroke:none"/></g></mask><linearGradient id="linear3" x1="56" x2="0" y1="252" y2="244" gradientTransform="matrix(1,0,0,1,8,-156.000008)" gradientUnits="userSpaceOnUse"><stop offset="0" style="stop-color:#fff;stop-opacity:1"/><stop offset="1" style="stop-color:#fff;stop-opacity:0"/></linearGradient><clipPath id="clip1"><rect width="192" height="152" x="0" y="0"/></clipPath><g id="surface5497" clip-path="url(#clip1)"><path style="stroke:none;fill-rule:evenodd;fill:url(#linear3)" d="M 28.015625 42.628906 C 27.976562 54.738281 28.011719 66.84375 28 78.949219 C 28 78.976562 28 79 28 79.023438 L 28 115.898438 C 28 121.617188 31.050781 126.898438 36 129.757812 C 40.949219 132.613281 47.050781 132.613281 52 129.757812 L 84 111.28125 C 88.949219 108.421875 92 103.140625 92 97.425781 C 92 91.707031 88.949219 86.425781 84 83.566406 L 52 65.09375 C 51.617188 64.878906 51.226562 64.675781 50.824219 64.492188 C 45.433594 61.351562 39.972656 58.324219 34.65625 55.0625 C 30.675781 52.234375 28.171875 47.503906 28.015625 42.628906 Z M 28.015625 42.628906"/></g><linearGradient id="linear4" x1="529.288" x2="543.341" y1="441.731" y2="408.599" gradientTransform="matrix(-0.5,-0.866025,0.866025,-0.5,-2.305103,745.500435)" gradientUnits="userSpaceOnUse"><stop offset="0" style="stop-color:#2dc0af;stop-opacity:1"/><stop offset="1" style="stop-color:#5ed9cb;stop-opacity:1"/></linearGradient><linearGradient id="linear5" x1="529.288" x2="543.341" y1="441.731" y2="408.599" gradientTransform="matrix(1,0,0,1,-504.000008,-330.000011)" gradientUnits="userSpaceOnUse"><stop offset="0" style="stop-color:#f9f06b;stop-opacity:1"/><stop offset="1" style="stop-color:#f6d32d;stop-opacity:1"/></linearGradient></defs><g id="surface5465"><path style="stroke:none;fill-rule:evenodd;fill:url(#linear0)" d="M 36.378906 14.007812 C 32.070312 13.90625 27.902344 15.546875 24.820312 18.554688 C 21.738281 21.566406 20 25.691406 20 30 L 20 46.976562 C 20 53.632812 20.007812 60.292969 20 66.949219 C 20 66.976562 20 67 20 67.023438 L 20 83.4375 C 20 90.257812 20.007812 97.078125 20 103.898438 C 19.96875 105.519531 20.230469 107.109375 20.714844 108.621094 C 20.71875 108.636719 20.722656 108.648438 20.726562 108.664062 C 20.863281 109.085938 21.011719 109.503906 21.1875 109.917969 C 21.335938 110.273438 21.496094 110.625 21.671875 110.972656 C 21.6875 111.011719 21.707031 111.046875 21.726562 111.085938 C 21.800781 111.25 21.878906 111.410156 21.960938 111.574219 C 22.472656 112.507812 23.074219 113.390625 23.765625 114.210938 C 24.875 115.519531 26.1875 116.640625 27.65625 117.535156 C 28.042969 117.773438 28.441406 118 28.847656 118.207031 C 30.582031 119.097656 32.484375 119.660156 34.46875 119.8125 C 34.527344 119.816406 34.589844 119.828125 34.652344 119.832031 C 34.898438 119.851562 35.144531 119.863281 35.390625 119.871094 C 35.746094 119.890625 36.101562 119.902344 36.457031 119.894531 C 36.484375 119.890625 36.507812 119.890625 36.535156 119.886719 C 36.984375 119.871094 37.433594 119.839844 37.878906 119.78125 C 40.035156 119.527344 42.117188 118.839844 44 117.757812 L 44.265625 117.605469 C 44.855469 117.289062 45.4375 116.957031 46 116.601562 C 46 116.601562 46 116.601562 46.003906 116.601562 L 76 99.28125 L 108 80.804688 C 113.242188 77.777344 116.324219 72.050781 115.96875 66.003906 C 115.875 63.972656 115.394531 61.960938 114.472656 60.097656 C 113.796875 58.558594 112.835938 57.222656 111.699219 56.039062 C 111.648438 55.988281 111.597656 55.9375 111.550781 55.886719 C 111.289062 55.625 111.03125 55.367188 110.753906 55.121094 C 110.527344 54.917969 110.296875 54.722656 110.0625 54.535156 C 109.890625 54.394531 109.714844 54.257812 109.539062 54.121094 C 109.386719 54.007812 109.234375 53.894531 109.078125 53.785156 C 108.097656 53.078125 107.0625 52.445312 106 51.882812 C 105.917969 51.851562 105.835938 51.824219 105.753906 51.792969 L 44 16.144531 C 41.679688 14.804688 39.058594 14.070312 36.378906 14.007812 Z M 36.378906 14.007812"/><path style="stroke:none;fill-rule:evenodd;fill:#2dc0af;fill-opacity:1" d="M 36.375 46.953125 C 32.070312 46.855469 27.902344 48.496094 24.820312 51.503906 C 21.738281 54.515625 20 58.640625 20 62.949219 L 20 99.898438 C 20 105.617188 23.050781 110.898438 28 113.757812 C 32.949219 116.613281 39.050781 116.613281 44 113.757812 L 76 95.28125 C 80.949219 92.421875 84 87.140625 84 81.425781 C 84 75.707031 80.949219 70.425781 76 67.566406 L 44 49.09375 C 41.679688 47.753906 39.058594 47.019531 36.375 46.953125 Z M 36.375 46.953125"/><path style="stroke:none;fill-rule:evenodd;fill:url(#linear1)" d="M 36.375 10.003906 C 32.070312 9.90625 27.902344 11.542969 24.820312 14.554688 C 21.738281 17.566406 20 21.691406 20 26 L 20 99.898438 L 52 99.898438 L 52 53.710938 L 92 76.804688 L 108 49.09375 L 44 12.144531 C 41.679688 10.804688 39.058594 10.070312 36.375 10.003906 Z M 36.375 10.003906"/><path style="stroke:none;fill-rule:evenodd;fill:url(#linear2)" d="M 68.375 28.480469 C 64.070312 28.378906 59.902344 30.019531 56.820312 33.03125 C 53.738281 36.039062 52 40.167969 52 44.472656 L 52 81.425781 C 52 87.140625 55.050781 92.421875 60 95.28125 C 64.953125 98.136719 71.050781 98.136719 76 95.28125 L 108 76.804688 C 112.949219 73.949219 116 68.667969 116 62.949219 C 116 57.234375 112.949219 51.953125 108 49.09375 L 76 30.617188 C 73.679688 29.277344 71.058594 28.542969 68.375 28.480469 Z M 68.375 28.480469"/><use mask="url(#mask0)" transform="matrix(1,0,0,1,-8,-16)" xlink:href="#surface5497"/><path style="stroke:none;fill-rule:evenodd;fill:url(#linear4)" d="M 75.613281 95.429688 C 86.425781 89.238281 97.203125 82.972656 108 76.753906 C 115.046875 72.855469 118.058594 63.320312 114.472656 56.097656 C 112.832031 52.355469 109.535156 49.746094 106 47.882812 C 97.460938 44.53125 86.484375 49.695312 84.496094 58.992188 C 83.917969 60.242188 83.988281 61.550781 84 62.949219 C 83.953125 69.621094 84.097656 76.300781 83.917969 82.96875 C 83.429688 88.164062 80.21875 92.976562 75.613281 95.429688 Z M 75.613281 95.429688"/><path style="stroke:none;fill-rule:evenodd;fill:url(#linear5)" d="M 20.019531 62.515625 C 19.972656 74.976562 20.011719 87.4375 20 99.898438 C 19.851562 107.953125 26.601562 115.328125 34.652344 115.832031 C 38.714844 116.285156 42.621094 114.734375 46 112.601562 C 53.175781 106.882812 54.191406 94.796875 47.132812 88.429688 C 46.339844 87.296875 45.167969 86.707031 43.953125 86.015625 C 38.199219 82.640625 32.34375 79.425781 26.65625 75.9375 C 22.40625 72.914062 19.839844 67.730469 20.019531 62.515625 Z M 20.019531 62.515625"/></g></svg>